<svg data-v-423bf9ae="" xmlns="http://www.w3.org/2000/svg" viewBox="0 0 875 90" class="iconLeft"><!----><defs data-v-423bf9ae=""><linearGradient data-v-423bf9ae="" gradientTransform="rotate(25)" id="a22bf296-8d19-439e-8743-afe6d08167db" x1="0%" y1="0%" x2="100%" y2="0%"><stop data-v-423bf9ae="" offset="0%" style="stop-color: rgb(24, 36, 113); stop-opacity: 1;"></stop><stop data-v-423bf9ae="" offset="100%" style="stop-color: rgb(38, 100, 200); stop-opacity: 1;"></stop></linearGradient></defs><!----><g data-v-423bf9ae="" id="355323ca-2f1b-4f0b-bf18-36ddfedf90a9" fill="#fff" transform="matrix(5.882352352142334,0,0,5.882352352142334,126.50773620605469,-18.411762237548828)"><path d="M2.31 12.07L2.31 15.68L1.22 15.68L1.22 5.88L2.31 5.88L2.31 10.00L2.48 10.00L2.48 10.00Q2.80 9.32 3.38 8.93L3.38 8.93L3.38 8.93Q3.96 8.54 4.80 8.54L4.80 8.54L4.80 8.54Q5.94 8.54 6.64 9.29L6.64 9.29L6.64 9.29Q7.35 10.04 7.35 11.54L7.35 11.54L7.35 15.68L6.26 15.68L6.26 11.76L6.26 11.76Q6.26 10.67 5.77 10.12L5.77 10.12L5.77 10.12Q5.28 9.58 4.44 9.58L4.44 9.58L4.44 9.58Q3.44 9.58 2.88 10.25L2.88 10.25L2.88 10.25Q2.31 10.93 2.31 12.07L2.31 12.07ZM11.94 6.66L11.94 6.66L11.94 6.66Q11.94 6.26 12.23 5.97L12.23 5.97L12.23 5.97Q12.52 5.68 12.92 5.68L12.92 5.68L12.92 5.68Q13.33 5.68 13.61 5.97L13.61 5.97L13.61 5.97Q13.90 6.26 13.90 6.66L13.90 6.66L13.90 6.66Q13.90 7.07 13.61 7.36L13.61 7.36L13.61 7.36Q13.33 7.64 12.92 7.64L12.92 7.64L12.92 7.64Q12.52 7.64 12.23 7.36L12.23 7.36L12.23 7.36Q11.94 7.07 11.94 6.66ZM9.95 15.68L9.95 14.67L12.39 14.67L12.39 9.74L10.21 9.74L10.21 8.74L13.48 8.74L13.48 14.67L15.75 14.67L15.75 15.68L9.95 15.68ZM18.12 9.74L18.12 8.74L20.30 8.74L20.30 5.88L21.39 5.88L21.39 8.74L24.08 8.74L24.08 9.74L21.39 9.74L21.39 14.25L21.39 14.25Q21.39 14.67 21.77 14.67L21.77 14.67L23.74 14.67L23.74 15.68L21.38 15.68L21.38 15.68Q20.90 15.68 20.60 15.37L20.60 15.37L20.60 15.37Q20.30 15.06 20.30 14.59L20.30 14.59L20.30 9.74L18.12 9.74ZM32.33 12.96L33.42 13.22L33.42 13.22Q33.31 13.79 33.03 14.28L33.03 14.28L33.03 14.28Q32.76 14.77 32.34 15.13L32.34 15.13L32.34 15.13Q31.92 15.48 31.36 15.68L31.36 15.68L31.36 15.68Q30.80 15.88 30.11 15.88L30.11 15.88L30.11 15.88Q29.39 15.88 28.73 15.64L28.73 15.64L28.73 15.64Q28.08 15.40 27.59 14.95L27.59 14.95L27.59 14.95Q27.10 14.49 26.82 13.83L26.82 13.83L26.82 13.83Q26.53 13.17 26.53 12.32L26.53 12.32L26.53 12.15L26.53 12.15Q26.53 11.31 26.82 10.64L26.82 10.64L26.82 10.64Q27.10 9.97 27.59 9.51L27.59 9.51L27.59 9.51Q28.08 9.04 28.73 8.79L28.73 8.79L28.73 8.79Q29.39 8.54 30.11 8.54L30.11 8.54L30.11 8.54Q30.77 8.54 31.33 8.74L31.33 8.74L31.33 8.74Q31.89 8.93 32.32 9.29L32.32 9.29L32.32 9.29Q32.75 9.65 33.02 10.14L33.02 10.14L33.02 10.14Q33.29 10.63 33.39 11.20L33.39 11.20L32.30 11.45L32.30 11.45Q32.26 11.09 32.09 10.74L32.09 10.74L32.09 10.74Q31.93 10.40 31.66 10.14L31.66 10.14L31.66 10.14Q31.39 9.88 31.00 9.73L31.00 9.73L31.00 9.73Q30.60 9.58 30.09 9.58L30.09 9.58L30.09 9.58Q29.58 9.58 29.14 9.77L29.14 9.77L29.14 9.77Q28.70 9.95 28.36 10.30L28.36 10.30L28.36 10.30Q28.03 10.64 27.84 11.12L27.84 11.12L27.84 11.12Q27.65 11.59 27.65 12.15L27.65 12.15L27.65 12.32L27.65 12.32Q27.65 12.91 27.84 13.38L27.84 13.38L27.84 13.38Q28.03 13.85 28.36 14.17L28.36 14.17L28.36 14.17Q28.70 14.49 29.15 14.66L29.15 14.66L29.15 14.66Q29.60 14.84 30.11 14.84L30.11 14.84L30.11 14.84Q30.63 14.84 31.02 14.68L31.02 14.68L31.02 14.68Q31.40 14.52 31.68 14.26L31.68 14.26L31.68 14.26Q31.95 14 32.11 13.66L32.11 13.66L32.11 13.66Q32.27 13.33 32.33 12.96L32.33 12.96ZM36.58 12.07L36.58 15.68L35.49 15.68L35.49 5.88L36.58 5.88L36.58 10.00L36.75 10.00L36.75 10.00Q37.07 9.32 37.65 8.93L37.65 8.93L37.65 8.93Q38.23 8.54 39.07 8.54L39.07 8.54L39.07 8.54Q40.21 8.54 40.91 9.29L40.91 9.29L40.91 9.29Q41.62 10.04 41.62 11.54L41.62 11.54L41.62 15.68L40.53 15.68L40.53 11.76L40.53 11.76Q40.53 10.67 40.04 10.12L40.04 10.12L40.04 10.12Q39.55 9.58 38.71 9.58L38.71 9.58L38.71 9.58Q37.72 9.58 37.15 10.25L37.15 10.25L37.15 10.25Q36.58 10.93 36.58 12.07L36.58 12.07ZM49.46 12.96L50.55 13.22L50.55 13.22Q50.44 13.79 50.17 14.28L50.17 14.28L50.17 14.28Q49.90 14.77 49.48 15.13L49.48 15.13L49.48 15.13Q49.06 15.48 48.50 15.68L48.50 15.68L48.50 15.68Q47.94 15.88 47.25 15.88L47.25 15.88L47.25 15.88Q46.52 15.88 45.87 15.64L45.87 15.64L45.87 15.64Q45.22 15.40 44.73 14.95L44.73 14.95L44.73 14.95Q44.24 14.49 43.95 13.83L43.95 13.83L43.95 13.83Q43.67 13.17 43.67 12.32L43.67 12.32L43.67 12.15L43.67 12.15Q43.67 11.31 43.95 10.64L43.95 10.64L43.95 10.64Q44.24 9.97 44.73 9.51L44.73 9.51L44.73 9.51Q45.22 9.04 45.87 8.79L45.87 8.79L45.87 8.79Q46.52 8.54 47.25 8.54L47.25 8.54L47.25 8.54Q47.91 8.54 48.47 8.74L48.47 8.74L48.47 8.74Q49.03 8.93 49.45 9.29L49.45 9.29L49.45 9.29Q49.88 9.65 50.15 10.14L50.15 10.14L50.15 10.14Q50.43 10.63 50.53 11.20L50.53 11.20L49.43 11.45L49.43 11.45Q49.39 11.09 49.23 10.74L49.23 10.74L49.23 10.74Q49.07 10.40 48.80 10.14L48.80 10.14L48.80 10.14Q48.52 9.88 48.13 9.73L48.13 9.73L48.13 9.73Q47.74 9.58 47.22 9.58L47.22 9.58L47.22 9.58Q46.72 9.58 46.28 9.77L46.28 9.77L46.28 9.77Q45.84 9.95 45.50 10.30L45.50 10.30L45.50 10.30Q45.16 10.64 44.97 11.12L44.97 11.12L44.97 11.12Q44.79 11.59 44.79 12.15L44.79 12.15L44.79 12.32L44.79 12.32Q44.79 12.91 44.97 13.38L44.97 13.38L44.97 13.38Q45.16 13.85 45.50 14.17L45.50 14.17L45.50 14.17Q45.84 14.49 46.28 14.66L46.28 14.66L46.28 14.66Q46.73 14.84 47.25 14.84L47.25 14.84L47.25 14.84Q47.77 14.84 48.15 14.68L48.15 14.68L48.15 14.68Q48.54 14.52 48.81 14.26L48.81 14.26L48.81 14.26Q49.08 14 49.24 13.66L49.24 13.66L49.24 13.66Q49.41 13.33 49.46 12.96L49.46 12.96ZM59.18 12.12L59.18 12.29L59.18 12.29Q59.18 13.16 58.89 13.82L58.89 13.82L58.89 13.82Q58.60 14.49 58.13 14.95L58.13 14.95L58.13 14.95Q57.65 15.40 57.01 15.64L57.01 15.64L57.01 15.64Q56.38 15.88 55.69 15.88L55.69 15.88L55.69 15.88Q54.99 15.88 54.36 15.64L54.36 15.64L54.36 15.64Q53.73 15.40 53.26 14.95L53.26 14.95L53.26 14.95Q52.78 14.49 52.49 13.82L52.49 13.82L52.49 13.82Q52.21 13.16 52.21 12.29L52.21 12.29L52.21 12.12L52.21 12.12Q52.21 11.27 52.49 10.61L52.49 10.61L52.49 10.61Q52.78 9.94 53.26 9.48L53.26 9.48L53.26 9.48Q53.75 9.02 54.38 8.78L54.38 8.78L54.38 8.78Q55.01 8.54 55.69 8.54L55.69 8.54L55.69 8.54Q56.38 8.54 57.01 8.78L57.01 8.78L57.01 8.78Q57.64 9.02 58.12 9.48L58.12 9.48L58.12 9.48Q58.60 9.94 58.89 10.61L58.89 10.61L58.89 10.61Q59.18 11.27 59.18 12.12L59.18 12.12ZM55.69 14.84L55.69 14.84L55.69 14.84Q56.20 14.84 56.62 14.66L56.62 14.66L56.62 14.66Q57.05 14.49 57.37 14.15L57.37 14.15L57.37 14.15Q57.69 13.82 57.88 13.35L57.88 13.35L57.88 13.35Q58.06 12.88 58.06 12.29L58.06 12.29L58.06 12.12L58.06 12.12Q58.06 11.56 57.88 11.09L57.88 11.09L57.88 11.09Q57.69 10.63 57.37 10.29L57.37 10.29L57.37 10.29Q57.05 9.95 56.62 9.77L56.62 9.77L56.62 9.77Q56.18 9.58 55.69 9.58L55.69 9.58L55.69 9.58Q55.20 9.58 54.77 9.77L54.77 9.77L54.77 9.77Q54.33 9.95 54.01 10.29L54.01 10.29L54.01 10.29Q53.69 10.63 53.51 11.09L53.51 11.09L53.51 11.09Q53.33 11.56 53.33 12.12L53.33 12.12L53.33 12.29L53.33 12.29Q53.33 12.88 53.51 13.35L53.51 13.35L53.51 13.35Q53.69 13.82 54.01 14.15L54.01 14.15L54.01 14.15Q54.33 14.49 54.76 14.66L54.76 14.66L54.76 14.66Q55.19 14.84 55.69 14.84ZM66.60 12.96L67.69 13.22L67.69 13.22Q67.58 13.79 67.30 14.28L67.30 14.28L67.30 14.28Q67.03 14.77 66.61 15.13L66.61 15.13L66.61 15.13Q66.19 15.48 65.63 15.68L65.63 15.68L65.63 15.68Q65.07 15.88 64.39 15.88L64.39 15.88L64.39 15.88Q63.66 15.88 63.01 15.64L63.01 15.64L63.01 15.64Q62.36 15.40 61.87 14.95L61.87 14.95L61.87 14.95Q61.38 14.49 61.09 13.83L61.09 13.83L61.09 13.83Q60.80 13.17 60.80 12.32L60.80 12.32L60.80 12.15L60.80 12.15Q60.80 11.31 61.09 10.64L61.09 10.64L61.09 10.64Q61.38 9.97 61.87 9.51L61.87 9.51L61.87 9.51Q62.36 9.04 63.01 8.79L63.01 8.79L63.01 8.79Q63.66 8.54 64.39 8.54L64.39 8.54L64.39 8.54Q65.04 8.54 65.60 8.74L65.60 8.74L65.60 8.74Q66.16 8.93 66.59 9.29L66.59 9.29L66.59 9.29Q67.02 9.65 67.29 10.14L67.29 10.14L67.29 10.14Q67.56 10.63 67.66 11.20L67.66 11.20L66.57 11.45L66.57 11.45Q66.53 11.09 66.37 10.74L66.37 10.74L66.37 10.74Q66.21 10.40 65.93 10.14L65.93 10.14L65.93 10.14Q65.66 9.88 65.27 9.73L65.27 9.73L65.27 9.73Q64.88 9.58 64.36 9.58L64.36 9.58L64.36 9.58Q63.85 9.58 63.41 9.77L63.41 9.77L63.41 9.77Q62.97 9.95 62.64 10.30L62.64 10.30L62.64 10.30Q62.30 10.64 62.11 11.12L62.11 11.12L62.11 11.12Q61.92 11.59 61.92 12.15L61.92 12.15L61.92 12.32L61.92 12.32Q61.92 12.91 62.11 13.38L62.11 13.38L62.11 13.38Q62.30 13.85 62.64 14.17L62.64 14.17L62.64 14.17Q62.97 14.49 63.42 14.66L63.42 14.66L63.42 14.66Q63.87 14.84 64.39 14.84L64.39 14.84L64.39 14.84Q64.90 14.84 65.29 14.68L65.29 14.68L65.29 14.68Q65.67 14.52 65.95 14.26L65.95 14.26L65.95 14.26Q66.22 14 66.38 13.66L66.38 13.66L66.38 13.66Q66.54 13.33 66.60 12.96L66.60 12.96ZM71.55 5.88L71.55 11.62L71.79 11.62L74.44 8.74L75.78 8.74L75.78 8.82L72.90 12.00L72.90 12.25L76.12 15.60L76.12 15.68L74.77 15.68L71.82 12.63L71.55 12.63L71.55 15.68L70.46 15.68L70.46 5.88L71.55 5.88ZM80.42 14.90L80.42 14.90L80.42 14.90Q80.42 14.49 80.70 14.20L80.70 14.20L80.70 14.20Q80.99 13.92 81.40 13.92L81.40 13.92L81.40 13.92Q81.80 13.92 82.09 14.20L82.09 14.20L82.09 14.20Q82.38 14.49 82.38 14.90L82.38 14.90L82.38 14.90Q82.38 15.30 82.09 15.59L82.09 15.59L82.09 15.59Q81.80 15.88 81.40 15.88L81.40 15.88L81.40 15.88Q80.99 15.88 80.70 15.59L80.70 15.59L80.70 15.59Q80.42 15.30 80.42 14.90ZM92.30 12.96L93.39 13.22L93.39 13.22Q93.28 13.79 93.01 14.28L93.01 14.28L93.01 14.28Q92.74 14.77 92.32 15.13L92.32 15.13L92.32 15.13Q91.90 15.48 91.34 15.68L91.34 15.68L91.34 15.68Q90.78 15.88 90.09 15.88L90.09 15.88L90.09 15.88Q89.36 15.88 88.71 15.64L88.71 15.64L88.71 15.64Q88.06 15.40 87.57 14.95L87.57 14.95L87.57 14.95Q87.08 14.49 86.79 13.83L86.79 13.83L86.79 13.83Q86.51 13.17 86.51 12.32L86.51 12.32L86.51 12.15L86.51 12.15Q86.51 11.31 86.79 10.64L86.79 10.64L86.79 10.64Q87.08 9.97 87.57 9.51L87.57 9.51L87.57 9.51Q88.06 9.04 88.71 8.79L88.71 8.79L88.71 8.79Q89.36 8.54 90.09 8.54L90.09 8.54L90.09 8.54Q90.75 8.54 91.31 8.74L91.31 8.74L91.31 8.74Q91.87 8.93 92.29 9.29L92.29 9.29L92.29 9.29Q92.72 9.65 92.99 10.14L92.99 10.14L92.99 10.14Q93.27 10.63 93.37 11.20L93.37 11.20L92.27 11.45L92.27 11.45Q92.23 11.09 92.07 10.74L92.07 10.74L92.07 10.74Q91.91 10.40 91.64 10.14L91.64 10.14L91.64 10.14Q91.36 9.88 90.97 9.73L90.97 9.73L90.97 9.73Q90.58 9.58 90.06 9.58L90.06 9.58L90.06 9.58Q89.56 9.58 89.12 9.77L89.12 9.77L89.12 9.77Q88.68 9.95 88.34 10.30L88.34 10.30L88.34 10.30Q88.00 10.64 87.81 11.12L87.81 11.12L87.81 11.12Q87.63 11.59 87.63 12.15L87.63 12.15L87.63 12.32L87.63 12.32Q87.63 12.91 87.81 13.38L87.81 13.38L87.81 13.38Q88.00 13.85 88.34 14.17L88.34 14.17L88.34 14.17Q88.68 14.49 89.12 14.66L89.12 14.66L89.12 14.66Q89.57 14.84 90.09 14.84L90.09 14.84L90.09 14.84Q90.61 14.84 90.99 14.68L90.99 14.68L90.99 14.68Q91.38 14.52 91.65 14.26L91.65 14.26L91.65 14.26Q91.92 14 92.08 13.66L92.08 13.66L92.08 13.66Q92.25 13.33 92.30 12.96L92.30 12.96ZM102.02 12.12L102.02 12.29L102.02 12.29Q102.02 13.16 101.73 13.82L101.73 13.82L101.73 13.82Q101.44 14.49 100.97 14.95L100.97 14.95L100.97 14.95Q100.49 15.40 99.85 15.64L99.85 15.64L99.85 15.64Q99.22 15.88 98.53 15.88L98.53 15.88L98.53 15.88Q97.83 15.88 97.20 15.64L97.20 15.64L97.20 15.64Q96.57 15.40 96.10 14.95L96.10 14.95L96.10 14.95Q95.62 14.49 95.33 13.82L95.33 13.82L95.33 13.82Q95.05 13.16 95.05 12.29L95.05 12.29L95.05 12.12L95.05 12.12Q95.05 11.27 95.33 10.61L95.33 10.61L95.33 10.61Q95.62 9.94 96.10 9.48L96.10 9.48L96.10 9.48Q96.59 9.02 97.22 8.78L97.22 8.78L97.22 8.78Q97.85 8.54 98.53 8.54L98.53 8.54L98.53 8.54Q99.22 8.54 99.85 8.78L99.85 8.78L99.85 8.78Q100.48 9.02 100.96 9.48L100.96 9.48L100.96 9.48Q101.44 9.94 101.73 10.61L101.73 10.61L101.73 10.61Q102.02 11.27 102.02 12.12L102.02 12.12ZM98.53 14.84L98.53 14.84L98.53 14.84Q99.04 14.84 99.46 14.66L99.46 14.66L99.46 14.66Q99.89 14.49 100.21 14.15L100.21 14.15L100.21 14.15Q100.53 13.82 100.72 13.35L100.72 13.35L100.72 13.35Q100.90 12.88 100.90 12.29L100.90 12.29L100.90 12.12L100.90 12.12Q100.90 11.56 100.72 11.09L100.72 11.09L100.72 11.09Q100.53 10.63 100.21 10.29L100.21 10.29L100.21 10.29Q99.89 9.95 99.46 9.77L99.46 9.77L99.46 9.77Q99.02 9.58 98.53 9.58L98.53 9.58L98.53 9.58Q98.04 9.58 97.61 9.77L97.61 9.77L97.61 9.77Q97.17 9.95 96.85 10.29L96.85 10.29L96.85 10.29Q96.53 10.63 96.35 11.09L96.35 11.09L96.35 11.09Q96.17 11.56 96.17 12.12L96.17 12.12L96.17 12.29L96.17 12.29Q96.17 12.88 96.35 13.35L96.35 13.35L96.35 13.35Q96.53 13.82 96.85 14.15L96.85 14.15L96.85 14.15Q97.17 14.49 97.60 14.66L97.60 14.66L97.60 14.66Q98.03 14.84 98.53 14.84ZM109.41 15.68L109.41 14.62L109.24 14.62L109.24 14.62Q109.07 14.94 108.81 15.18L108.81 15.18L108.81 15.18Q108.56 15.41 108.25 15.57L108.25 15.57L108.25 15.57Q107.95 15.72 107.62 15.80L107.62 15.80L107.62 15.80Q107.28 15.88 106.97 15.88L106.97 15.88L106.97 15.88Q106.27 15.88 105.67 15.64L105.67 15.64L105.67 15.64Q105.07 15.40 104.61 14.95L104.61 14.95L104.61 14.95Q104.16 14.50 103.90 13.84L103.90 13.84L103.90 13.84Q103.64 13.17 103.64 12.32L103.64 12.32L103.64 12.10L103.64 12.10Q103.64 11.26 103.91 10.59L103.91 10.59L103.91 10.59Q104.17 9.93 104.62 9.47L104.62 9.47L104.62 9.47Q105.07 9.02 105.67 8.78L105.67 8.78L105.67 8.78Q106.27 8.54 106.95 8.54L106.95 8.54L106.95 8.54Q107.66 8.54 108.28 8.86L108.28 8.86L108.28 8.86Q108.91 9.17 109.24 9.83L109.24 9.83L109.41 9.83L109.41 5.88L110.50 5.88L110.50 15.68L109.41 15.68ZM107.09 14.84L107.09 14.84L107.09 14.84Q107.58 14.84 108.00 14.66L108.00 14.66L108.00 14.66Q108.42 14.48 108.73 14.14L108.73 14.14L108.73 14.14Q109.05 13.80 109.23 13.33L109.23 13.33L109.23 13.33Q109.41 12.87 109.41 12.29L109.41 12.29L109.41 12.12L109.41 12.12Q109.41 11.56 109.23 11.09L109.23 11.09L109.23 11.09Q109.05 10.63 108.73 10.29L108.73 10.29L108.73 10.29Q108.42 9.95 107.99 9.77L107.99 9.77L107.99 9.77Q107.56 9.58 107.09 9.58L107.09 9.58L107.09 9.58Q106.60 9.58 106.17 9.76L106.17 9.76L106.17 9.76Q105.74 9.94 105.43 10.28L105.43 10.28L105.43 10.28Q105.11 10.61 104.94 11.07L104.94 11.07L104.94 11.07Q104.76 11.54 104.76 12.10L104.76 12.10L104.76 12.32L104.76 12.32Q104.76 12.91 104.94 13.37L104.94 13.37L104.94 13.37Q105.11 13.83 105.43 14.16L105.43 14.16L105.43 14.16Q105.74 14.49 106.16 14.66L106.16 14.66L106.16 14.66Q106.58 14.84 107.09 14.84ZM119.00 12.54L113.40 12.54L113.40 12.54Q113.44 13.58 114.04 14.21L114.04 14.21L114.04 14.21Q114.65 14.84 115.72 14.84L115.72 14.84L115.72 14.84Q116.21 14.84 116.58 14.73L116.58 14.73L116.58 14.73Q116.94 14.62 117.20 14.42L117.20 14.42L117.20 14.42Q117.46 14.22 117.62 13.96L117.62 13.96L117.62 13.96Q117.78 13.71 117.88 13.41L117.88 13.41L118.92 13.69L118.92 13.69Q118.62 14.66 117.83 15.27L117.83 15.27L117.83 15.27Q117.04 15.88 115.70 15.88L115.70 15.88L115.70 15.88Q114.95 15.88 114.33 15.62L114.33 15.62L114.33 15.62Q113.71 15.36 113.26 14.88L113.26 14.88L113.26 14.88Q112.81 14.41 112.56 13.75L112.56 13.75L112.56 13.75Q112.31 13.09 112.31 12.29L112.31 12.29L112.31 11.96L112.31 11.96Q112.31 11.23 112.57 10.60L112.57 10.60L112.57 10.60Q112.83 9.97 113.29 9.51L113.29 9.51L113.29 9.51Q113.75 9.06 114.37 8.80L114.37 8.80L114.37 8.80Q115.00 8.54 115.72 8.54L115.72 8.54L115.72 8.54Q116.58 8.54 117.20 8.86L117.20 8.86L117.20 8.86Q117.82 9.17 118.22 9.63L118.22 9.63L118.22 9.63Q118.62 10.09 118.81 10.64L118.81 10.64L118.81 10.64Q119.00 11.19 119.00 11.65L119.00 11.65L119.00 12.54ZM115.72 9.58L115.72 9.58L115.72 9.58Q115.26 9.58 114.86 9.72L114.86 9.72L114.86 9.72Q114.46 9.87 114.16 10.14L114.16 10.14L114.16 10.14Q113.86 10.40 113.67 10.76L113.67 10.76L113.67 10.76Q113.48 11.12 113.43 11.54L113.43 11.54L117.91 11.54L117.91 11.54Q117.88 11.09 117.69 10.72L117.69 10.72L117.69 10.72Q117.50 10.36 117.20 10.11L117.20 10.11L117.20 10.11Q116.90 9.86 116.51 9.72L116.51 9.72L116.51 9.72Q116.13 9.58 115.72 9.58ZM122.61 10.53L122.61 10.53L122.61 10.53Q122.61 11.03 123.04 11.30L123.04 11.30L123.04 11.30Q123.47 11.56 124.60 11.65L124.60 11.65L124.60 11.65Q125.82 11.75 126.45 12.23L126.45 12.23L126.45 12.23Q127.09 12.71 127.09 13.64L127.09 13.64L127.09 13.72L127.09 13.72Q127.09 14.22 126.89 14.62L126.89 14.62L126.89 14.62Q126.69 15.02 126.33 15.30L126.33 15.30L126.33 15.30Q125.97 15.58 125.46 15.73L125.46 15.73L125.46 15.73Q124.95 15.88 124.35 15.88L124.35 15.88L124.35 15.88Q123.54 15.88 122.95 15.66L122.95 15.66L122.95 15.66Q122.37 15.44 121.99 15.08L121.99 15.08L121.99 15.08Q121.60 14.73 121.41 14.27L121.41 14.27L121.41 14.27Q121.21 13.82 121.18 13.36L121.18 13.36L122.22 13.10L122.22 13.10Q122.29 13.90 122.84 14.38L122.84 14.38L122.84 14.38Q123.38 14.87 124.29 14.87L124.29 14.87L124.29 14.87Q125.06 14.87 125.53 14.57L125.53 14.57L125.53 14.57Q126.00 14.27 126.00 13.72L126.00 13.72L126.00 13.72Q126.00 13.13 125.54 12.88L125.54 12.88L125.54 12.88Q125.08 12.63 124.04 12.56L124.04 12.56L124.04 12.56Q122.84 12.47 122.19 12.00L122.19 12.00L122.19 12.00Q121.55 11.52 121.55 10.61L121.55 10.61L121.55 10.53L121.55 10.53Q121.55 10.04 121.76 9.67L121.76 9.67L121.76 9.67Q121.97 9.30 122.32 9.04L122.32 9.04L122.32 9.04Q122.68 8.79 123.13 8.67L123.13 8.67L123.13 8.67Q123.58 8.54 124.07 8.54L124.07 8.54L124.07 8.54Q124.75 8.54 125.27 8.73L125.27 8.73L125.27 8.73Q125.79 8.92 126.14 9.22L126.14 9.22L126.14 9.22Q126.49 9.52 126.68 9.91L126.68 9.91L126.68 9.91Q126.87 10.30 126.92 10.70L126.92 10.70L125.89 10.95L125.89 10.95Q125.82 10.28 125.35 9.90L125.35 9.90L125.35 9.90Q124.88 9.52 124.12 9.52L124.12 9.52L124.12 9.52Q123.83 9.52 123.56 9.58L123.56 9.58L123.56 9.58Q123.28 9.65 123.07 9.77L123.07 9.77L123.07 9.77Q122.86 9.90 122.74 10.09L122.74 10.09L122.74 10.09Q122.61 10.28 122.61 10.53Z"></path></g><!----><g data-v-423bf9ae="" id="090542a8-c077-4af5-8b12-b3e0dffb500a" transform="matrix(2.3684210777282715,0,0,2.3684210777282715,-11.684211730957031,-11.842105865478516)" stroke="none" fill="#fff"><path clip-rule="evenodd" d="M5 43V13h48v30H5zm46-2V15H7v26h44zM9 9h40v2H9V9zm4-4h32v2H13V5zm10.651 30.008L17 28l6.651-7.009 1.365 1.407L19.73 28l5.286 5.602-1.365 1.406zm10.698-14.016L41 28l-6.651 7.009-1.365-1.407L38.27 28l-5.286-5.602 1.365-1.406z"></path></g><!----></svg>