<svg data-v-d3f97b9e="" xmlns="http://www.w3.org/2000/svg" viewBox="0 0 85.25872038221574 60"><!----><!----><!----><!----><g data-v-d3f97b9e="" id="e0bf916f-a8f7-444e-ab40-13833a051ecd" transform="matrix(0.9811807850599096,0,0,0.9811807850599096,-5.939083047129429,-17.405568623155197)" stroke="none" fill="white"><path d="M11.146 45.898l21.073-14.072a2 2 0 1 0-2.222-3.326L8.924 42.572a6.444 6.444 0 0 0-2.871 5.37 6.444 6.444 0 0 0 2.871 5.37l21.073 14.072a1.997 1.997 0 0 0 2.774-.552 2 2 0 0 0-.552-2.774L11.146 49.985a2.422 2.422 0 0 1-1.093-2.044c0-.835.399-1.579 1.093-2.043zM90.076 42.572L69.002 28.5a2 2 0 0 0-2.222 3.326l21.073 14.072a2.422 2.422 0 0 1 1.093 2.043 2.42 2.42 0 0 1-1.093 2.044L66.781 64.058a2 2 0 1 0 2.222 3.326l21.073-14.072a6.444 6.444 0 0 0 2.871-5.37 6.444 6.444 0 0 0-2.871-5.37zM59.221 17.834a2 2 0 0 0-2.513 1.297l-18.227 57.11a2 2 0 1 0 3.81 1.215l18.227-57.109a2 2 0 0 0-1.297-2.513z"></path></g><!----></svg>