<svg height='100px' width='100px'  fill="#002e5d" xmlns="http://www.w3.org/2000/svg" xmlns:xlink="http://www.w3.org/1999/xlink" version="1.1" x="0px" y="0px" viewBox="0 0 64 64" enable-background="new 0 0 64 64" xml:space="preserve"><g><path d="M0.78,43.97l13.224,3.087V58.89c-0.003,0.033-0.02,0.063-0.02,0.097c0,2.214,1.802,4.016,4.016,4.016   c0.021,0,0.038-0.011,0.059-0.012h25.889c0.021,0.001,0.038,0.012,0.059,0.012c2.214,0,4.016-1.802,4.016-4.016   c0-0.048-0.021-0.09-0.027-0.136V47.056l12.012-2.803v4.612l-1.96,6.866c-0.014,0.047-0.005,0.093-0.011,0.141   c-0.007,0.046-0.027,0.086-0.027,0.134c0,0.021,0.011,0.038,0.012,0.059c0.005,0.071,0.022,0.137,0.041,0.204   c0.017,0.06,0.029,0.118,0.057,0.172c0.028,0.058,0.066,0.105,0.105,0.156c0.039,0.052,0.074,0.104,0.123,0.146   c0.045,0.041,0.098,0.069,0.15,0.102c0.06,0.036,0.116,0.071,0.183,0.095c0.02,0.007,0.034,0.022,0.055,0.028   c0.091,0.025,0.182,0.037,0.272,0.038c0.001,0,0.001,0,0.002,0h3.984c0.001,0,0.001,0,0.002,0c0.09-0.001,0.181-0.012,0.271-0.038   c0.021-0.006,0.035-0.021,0.055-0.028c0.066-0.023,0.123-0.058,0.183-0.094c0.053-0.032,0.106-0.062,0.151-0.103   c0.048-0.043,0.084-0.093,0.122-0.145c0.039-0.052,0.078-0.1,0.106-0.157c0.026-0.055,0.04-0.114,0.057-0.175   c0.019-0.066,0.036-0.13,0.04-0.2c0.002-0.021,0.013-0.039,0.013-0.061c0-0.049-0.021-0.09-0.027-0.137   c-0.007-0.046,0.002-0.091-0.011-0.137l-1.948-6.866v-5.87c0-0.229-0.09-0.431-0.22-0.6c-0.007-0.009-0.012-0.02-0.02-0.028   c-0.055-0.066-0.118-0.12-0.188-0.171c-0.03-0.022-0.061-0.043-0.093-0.063c-0.062-0.034-0.124-0.061-0.193-0.081   c-0.026-0.009-0.047-0.025-0.074-0.031L31.22,35.021c-0.15-0.035-0.305-0.035-0.455,0L0.78,42.022   c-0.452,0.105-0.772,0.509-0.772,0.974S0.328,43.864,0.78,43.97z M46.012,59.086c-0.053,1.056-0.916,1.9-1.981,1.914   c-0.017-0.001-0.029-0.01-0.046-0.01H18c-0.014,0-0.025,0.007-0.039,0.008c-1.067-0.021-1.93-0.875-1.969-1.938   c0.001-0.021,0.012-0.038,0.012-0.06V47.523l14.761,3.446c0.075,0.018,0.151,0.026,0.228,0.026s0.152-0.009,0.228-0.026   l14.774-3.447V59C45.994,59.03,46.009,59.056,46.012,59.086z M61.003,52.66l0.666,2.346h-1.335L61.003,52.66z M30.992,37.021   l25.598,5.975l-25.598,5.973L5.406,42.996L30.992,37.021z"></path><path d="M43.008,57.008h-24c-0.553,0-1,0.447-1,1s0.447,1,1,1h24c0.553,0,1-0.447,1-1S43.561,57.008,43.008,57.008z"></path><path d="M30.999,0.998c-8.271,0-15,6.729-15,15c0,7.312,5.167,13.461,12.333,14.745l1.96,1.96c0.195,0.195,0.451,0.293,0.707,0.293   s0.512-0.098,0.707-0.293l1.96-1.96c7.166-1.284,12.333-7.434,12.333-14.745C45.999,7.727,39.271,0.998,30.999,0.998z    M33.029,28.822c-0.209,0.033-0.402,0.132-0.552,0.281l-1.479,1.479l-1.479-1.479c-0.149-0.149-0.343-0.248-0.552-0.281   c-6.356-1-10.97-6.394-10.97-12.824c0-7.168,5.832-13,13-13s13,5.832,13,13C43.999,22.429,39.386,27.822,33.029,28.822z"></path><path d="M26.694,12.285c-0.391-0.391-1.023-0.391-1.414,0l-3,3c-0.391,0.391-0.391,1.023,0,1.414l3,3   c0.195,0.195,0.451,0.293,0.707,0.293s0.512-0.098,0.707-0.293c0.391-0.391,0.391-1.023,0-1.414l-2.293-2.293l2.293-2.293   C27.085,13.309,27.085,12.676,26.694,12.285z"></path><path d="M36.701,12.285c-0.391-0.391-1.023-0.391-1.414,0s-0.391,1.023,0,1.414l2.293,2.293l-2.293,2.293   c-0.391,0.391-0.391,1.023,0,1.414c0.195,0.195,0.451,0.293,0.707,0.293s0.512-0.098,0.707-0.293l3-3   c0.391-0.391,0.391-1.023,0-1.414L36.701,12.285z"></path><path d="M33.361,10.062c-0.51-0.204-1.095,0.043-1.3,0.558l-4.001,10.004c-0.205,0.513,0.045,1.095,0.558,1.3   c0.121,0.049,0.247,0.071,0.371,0.071c0.396,0,0.772-0.237,0.929-0.629l4.001-10.004C34.124,10.849,33.874,10.267,33.361,10.062z"></path></g></svg>