<svg version="1.1" viewBox="0.0 0.0 960.0 540.0" fill="none" stroke="none" stroke-linecap="square" stroke-miterlimit="10" xmlns:xlink="http://www.w3.org/1999/xlink" xmlns="http://www.w3.org/2000/svg"><clipPath id="p.0"><path d="m0 0l960.0 0l0 540.0l-960.0 0l0 -540.0z" clip-rule="nonzero"/></clipPath><g clip-path="url(#p.0)"><path fill="#000000" fill-opacity="0.0" d="m0 0l960.0 0l0 540.0l-960.0 0z" fill-rule="evenodd"/><path fill="#002e5d" d="m-0.007874016 83.964935l0 0c0 -46.372555 37.59238 -83.964935 83.964935 -83.964935l792.0702 0c22.26886 0 43.62567 8.84628 59.37213 24.59276c15.746521 15.746481 24.592773 37.103287 24.592773 59.372177l0 335.84967c0 46.372528 -37.592407 83.964935 -83.964905 83.964935l-792.0702 0c-46.372555 0 -83.964935 -37.592407 -83.964935 -83.964935z" fill-rule="evenodd"/><path fill="#002e5d" d="m677.7803 92.34635l-0.06298828 309.429l-200.88193 39.490326l0.0630188 -309.429z" fill-rule="evenodd"/><path stroke="#ffffff" stroke-width="8.0" stroke-linejoin="round" stroke-linecap="butt" d="m677.7803 92.34635l-0.06298828 309.429l-200.88193 39.490326l0.0630188 -309.429z" fill-rule="evenodd"/><path fill="#002e5d" d="m276.07407 92.44947l0.39370728 309.42163l200.92914 39.291992l-0.39370728 -309.42163z" fill-rule="evenodd"/><path stroke="#ffffff" stroke-width="8.0" stroke-linejoin="round" stroke-linecap="butt" d="m276.07407 92.44947l0.39370728 309.42163l200.92914 39.291992l-0.39370728 -309.42163z" fill-rule="evenodd"/><path fill="#ffffff" d="m276.38904 73.97876l0.06298828 309.429l200.8819 39.490295l-0.06298828 -309.42896z" fill-rule="evenodd"/><path stroke="#ffffff" stroke-width="8.0" stroke-linejoin="round" stroke-linecap="butt" d="m276.38904 73.97876l0.06298828 309.429l200.8819 39.490295l-0.06298828 -309.42896z" fill-rule="evenodd"/><path fill="#ffffff" d="m678.0952 74.08188l-0.39367676 309.42163l-200.92917 39.291992l0.39370728 -309.42163z" fill-rule="evenodd"/><path stroke="#ffffff" stroke-width="8.0" stroke-linejoin="round" stroke-linecap="butt" d="m678.0952 74.08188l-0.39367676 309.42163l-200.92917 39.291992l0.39370728 -309.42163z" fill-rule="evenodd"/><path fill="#002e5d" d="m236.52756 455.4331l0 0c-26.196564 0 -47.433075 -24.289032 -47.433075 -54.2511l0 -95.04111c0 -29.962036 -21.236496 -54.251083 -47.43306 -54.251083l0 0c26.196564 0 47.43306 -24.289047 47.43306 -54.2511l0 -95.041115l0 0c0 -29.962051 21.236511 -54.2511 47.433075 -54.2511z" fill-rule="evenodd"/><path fill="#000000" fill-opacity="0.0" d="m236.52756 455.4331l0 0c-26.196564 0 -47.433075 -24.289032 -47.433075 -54.2511l0 -95.04111c0 -29.962036 -21.236496 -54.251083 -47.43306 -54.251083l0 0c26.196564 0 47.43306 -24.289047 47.43306 -54.2511l0 -95.041115l0 0c0 -29.962051 21.236511 -54.2511 47.433075 -54.2511" fill-rule="evenodd"/><path stroke="#ffffff" stroke-width="24.0" stroke-linejoin="round" stroke-linecap="butt" d="m236.52756 455.4331l0 0c-26.196564 0 -47.433075 -24.289032 -47.433075 -54.2511l0 -95.04111c0 -29.962036 -21.236496 -54.251083 -47.43306 -54.251083l0 0c26.196564 0 47.43306 -24.289047 47.43306 -54.2511l0 -95.041115l0 0c0 -29.962051 21.236511 -54.2511 47.433075 -54.2511" fill-rule="evenodd"/><path fill="#002e5d" d="m717.66144 455.4331l0 0c26.196533 0 47.433044 -24.289032 47.433044 -54.2511l0 -95.04111c0 -29.962036 21.236511 -54.251083 47.433105 -54.251083l0 0c-26.196594 0 -47.433105 -24.289047 -47.433105 -54.2511l0 -95.041115l0 0c0 -29.962051 -21.236511 -54.2511 -47.433044 -54.2511z" fill-rule="evenodd"/><path fill="#000000" fill-opacity="0.0" d="m717.66144 455.4331l0 0c26.196533 0 47.433044 -24.289032 47.433044 -54.2511l0 -95.04111c0 -29.962036 21.236511 -54.251083 47.433105 -54.251083l0 0c-26.196594 0 -47.433105 -24.289047 -47.433105 -54.2511l0 -95.041115l0 0c0 -29.962051 -21.236511 -54.2511 -47.433044 -54.2511" fill-rule="evenodd"/><path stroke="#ffffff" stroke-width="24.0" stroke-linejoin="round" stroke-linecap="butt" d="m717.66144 455.4331l0 0c26.196533 0 47.433044 -24.289032 47.433044 -54.2511l0 -95.04111c0 -29.962036 21.236511 -54.251083 47.433105 -54.251083l0 0c-26.196594 0 -47.433105 -24.289047 -47.433105 -54.2511l0 -95.041115l0 0c0 -29.962051 -21.236511 -54.2511 -47.433044 -54.2511" fill-rule="evenodd"/><path fill="#002e5d" d="m438.6699 343.85767l0 0c-5.1749573 -1.8786316 -7.649536 -7.5195923 -5.52713 -12.599457l69.16449 -165.54126c1.0192261 -2.4394226 2.9838867 -4.4205627 5.4618225 -5.5075684c2.4779053 -1.0870209 5.266144 -1.1908722 7.75119 -0.2887268l0 0l0 0c5.174988 1.8786469 7.649536 7.5196075 5.5271606 12.599442l-69.16449 165.54128c-2.122406 5.079834 -8.038086 7.6749268 -13.213043 5.796295z" fill-rule="evenodd"/><path fill="#ffffff" d="m418.31497 319.028l-79.968506 -70.59189l79.968506 -70.59189z" fill-rule="evenodd"/><path stroke="#002e5d" stroke-width="24.0" stroke-linejoin="round" stroke-linecap="butt" d="m418.31497 319.028l-79.968506 -70.59189l79.968506 -70.59189z" fill-rule="evenodd"/><path fill="#ffffff" d="m434.6496 319.02924l-79.968506 -70.59189l79.968506 -70.59189z" fill-rule="evenodd"/><path fill="#ffffff" d="m540.2336 319.02924l79.968506 -70.59189l-79.968506 -70.59189z" fill-rule="evenodd"/><path stroke="#002e5d" stroke-width="24.0" stroke-linejoin="round" stroke-linecap="butt" d="m540.2336 319.02924l79.968506 -70.59189l-79.968506 -70.59189z" fill-rule="evenodd"/><path fill="#ffffff" d="m523.8989 319.03046l79.968506 -70.59189l-79.968506 -70.59187z" fill-rule="evenodd"/><path fill="#002e5d" d="m179.59055 525.9685l0 0c0 -7.7493896 6.2821198 -14.031494 14.031494 -14.031494l572.75586 0c3.7214355 0 7.290344 1.4783325 9.921814 4.109741c2.6314087 2.6314087 4.10968 6.2003784 4.10968 9.921753l0 0l0 0c0 7.7493896 -6.2821045 14.031494 -14.031494 14.031494l-572.75586 0c-7.7493744 0 -14.031494 -6.2821045 -14.031494 -14.031494z" fill-rule="evenodd"/></g></svg>