<svg data-v-d3f97b9e="" xmlns="http://www.w3.org/2000/svg" viewBox="0 0 797 90"><!----><!----><!----><g data-v-d3f97b9e="" id="4c11dfd8-bf55-44d2-a91b-b5943f9e57fd" fill="white" transform="matrix(5.876591554929072,0,0,5.876591554929072,211.80009147451852,-4.040157886106634)"><path d="M1.87 13.33L1.28 13.33L1.28 13.33Q0.97 13.33 0.97 13.02L0.97 13.02L0.97 3.55L0.97 3.55Q0.97 3.24 1.28 3.24L1.28 3.24L1.87 3.24L1.87 3.24Q2.17 3.24 2.17 3.55L2.17 3.55L2.17 6.60L2.17 6.60Q2.17 6.80 2.16 7.01L2.16 7.01L2.19 7.01L2.19 7.01Q2.63 6.51 3.14 6.28L3.14 6.28L3.14 6.28Q3.66 6.04 4.42 6.04L4.42 6.04L4.42 6.04Q5.67 6.04 6.21 6.74L6.21 6.74L6.21 6.74Q6.75 7.44 6.75 8.65L6.75 8.65L6.75 13.02L6.75 13.02Q6.75 13.33 6.45 13.33L6.45 13.33L5.86 13.33L5.86 13.33Q5.55 13.33 5.55 13.02L5.55 13.02L5.55 8.98L5.55 8.98Q5.55 7.64 5.11 7.28L5.11 7.28L5.11 7.28Q4.66 6.92 3.98 6.92L3.98 6.92L3.98 6.92Q3.09 6.92 2.63 7.45L2.63 7.45L2.63 7.45Q2.17 7.98 2.17 9.27L2.17 9.27L2.17 13.02L2.17 13.02Q2.17 13.33 1.87 13.33L1.87 13.33ZM9.58 13.33L8.99 13.33L8.99 13.33Q8.68 13.33 8.68 13.02L8.68 13.02L8.68 6.46L8.68 6.46Q8.68 6.15 8.99 6.15L8.99 6.15L9.58 6.15L9.58 6.15Q9.88 6.15 9.88 6.46L9.88 6.46L9.88 13.02L9.88 13.02Q9.88 13.33 9.58 13.33L9.58 13.33ZM9.58 4.85L8.99 4.85L8.99 4.85Q8.68 4.85 8.68 4.55L8.68 4.55L8.68 3.96L8.68 3.96Q8.68 3.65 8.99 3.65L8.99 3.65L9.58 3.65L9.58 3.65Q9.88 3.65 9.88 3.96L9.88 3.96L9.88 4.55L9.88 4.55Q9.88 4.85 9.58 4.85L9.58 4.85ZM12.28 7.05L11.48 7.05L11.48 7.05Q11.17 7.05 11.17 6.82L11.17 6.82L11.17 6.39L11.17 6.39Q11.17 6.15 11.48 6.15L11.48 6.15L12.28 6.15L12.28 5.54L12.28 5.54Q12.28 5.40 12.35 5.28L12.35 5.28L12.83 4.41L12.83 4.41Q12.96 4.17 13.04 4.17L13.04 4.17L13.28 4.17L13.28 4.17Q13.49 4.17 13.49 4.41L13.49 4.41L13.49 6.15L14.94 6.15L14.94 6.15Q15.25 6.15 15.25 6.39L15.25 6.39L15.25 6.82L15.25 6.82Q15.25 7.05 14.94 7.05L14.94 7.05L13.49 7.05L13.49 11.41L13.49 11.41Q13.49 12.13 13.70 12.34L13.70 12.34L13.70 12.34Q13.92 12.56 14.22 12.56L14.22 12.56L14.22 12.56Q14.45 12.56 14.78 12.42L14.78 12.42L14.78 12.42Q15.10 12.28 15.22 12.19L15.22 12.19L15.22 12.19Q15.35 12.09 15.42 12.25L15.42 12.25L15.64 12.78L15.64 12.78Q15.70 12.91 15.56 13.00L15.56 13.00L15.56 13.00Q15.29 13.15 14.78 13.30L14.78 13.30L14.78 13.30Q14.27 13.45 13.75 13.45L13.75 13.45L13.75 13.45Q13.04 13.45 12.66 12.93L12.66 12.93L12.66 12.93Q12.28 12.42 12.28 11.48L12.28 11.48L12.28 7.05ZM16.61 9.74L16.61 9.74L16.61 9.74Q16.61 8.13 17.41 7.09L17.41 7.09L17.41 7.09Q18.20 6.04 19.84 6.04L19.84 6.04L19.84 6.04Q20.95 6.04 21.54 6.43L21.54 6.43L21.54 6.43Q22.12 6.82 22.38 7.23L22.38 7.23L22.38 7.23Q22.52 7.46 22.32 7.59L22.32 7.59L21.89 7.88L21.89 7.88Q21.68 8.02 21.48 7.69L21.48 7.69L21.48 7.69Q21.28 7.38 20.92 7.15L20.92 7.15L20.92 7.15Q20.56 6.92 19.84 6.92L19.84 6.92L19.84 6.92Q18.91 6.92 18.40 7.62L18.40 7.62L18.40 7.62Q17.88 8.31 17.88 9.74L17.88 9.74L17.88 9.74Q17.88 11.18 18.40 11.87L18.40 11.87L18.40 11.87Q18.91 12.56 19.84 12.56L19.84 12.56L19.84 12.56Q20.60 12.56 21.01 12.27L21.01 12.27L21.01 12.27Q21.41 11.98 21.59 11.63L21.59 11.63L21.59 11.63Q21.77 11.31 22.00 11.45L22.00 11.45L22.46 11.72L22.46 11.72Q22.66 11.85 22.52 12.09L22.52 12.09L22.52 12.09Q22.35 12.39 21.74 12.92L21.74 12.92L21.74 12.92Q21.14 13.45 19.84 13.45L19.84 13.45L19.84 13.45Q18.20 13.45 17.41 12.40L17.41 12.40L17.41 12.40Q16.61 11.35 16.61 9.74ZM24.91 13.33L24.32 13.33L24.32 13.33Q24.01 13.33 24.01 13.02L24.01 13.02L24.01 3.55L24.01 3.55Q24.01 3.24 24.32 3.24L24.32 3.24L24.91 3.24L24.91 3.24Q25.22 3.24 25.22 3.55L25.22 3.55L25.22 6.60L25.22 6.60Q25.22 6.80 25.20 7.01L25.20 7.01L25.23 7.01L25.23 7.01Q25.68 6.51 26.19 6.28L26.19 6.28L26.19 6.28Q26.70 6.04 27.47 6.04L27.47 6.04L27.47 6.04Q28.71 6.04 29.25 6.74L29.25 6.74L29.25 6.74Q29.80 7.44 29.80 8.65L29.80 8.65L29.80 13.02L29.80 13.02Q29.80 13.33 29.49 13.33L29.49 13.33L28.90 13.33L28.90 13.33Q28.59 13.33 28.59 13.02L28.59 13.02L28.59 8.98L28.59 8.98Q28.59 7.64 28.15 7.28L28.15 7.28L28.15 7.28Q27.71 6.92 27.02 6.92L27.02 6.92L27.02 6.92Q26.13 6.92 25.68 7.45L25.68 7.45L25.68 7.45Q25.22 7.98 25.22 9.27L25.22 9.27L25.22 13.02L25.22 13.02Q25.22 13.33 24.91 13.33L24.91 13.33ZM31.34 9.74L31.34 9.74L31.34 9.74Q31.34 8.13 32.13 7.09L32.13 7.09L32.13 7.09Q32.93 6.04 34.57 6.04L34.57 6.04L34.57 6.04Q35.68 6.04 36.26 6.43L36.26 6.43L36.26 6.43Q36.85 6.82 37.11 7.23L37.11 7.23L37.11 7.23Q37.25 7.46 37.04 7.59L37.04 7.59L36.61 7.88L36.61 7.88Q36.41 8.02 36.20 7.69L36.20 7.69L36.20 7.69Q36.00 7.38 35.65 7.15L35.65 7.15L35.65 7.15Q35.29 6.92 34.57 6.92L34.57 6.92L34.57 6.92Q33.63 6.92 33.12 7.62L33.12 7.62L33.12 7.62Q32.61 8.31 32.61 9.74L32.61 9.74L32.61 9.74Q32.61 11.18 33.12 11.87L33.12 11.87L33.12 11.87Q33.63 12.56 34.57 12.56L34.57 12.56L34.57 12.56Q35.33 12.56 35.73 12.27L35.73 12.27L35.73 12.27Q36.13 11.98 36.32 11.63L36.32 11.63L36.32 11.63Q36.50 11.31 36.72 11.45L36.72 11.45L37.18 11.72L37.18 11.72Q37.39 11.85 37.24 12.09L37.24 12.09L37.24 12.09Q37.07 12.39 36.47 12.92L36.47 12.92L36.47 12.92Q35.86 13.45 34.57 13.45L34.57 13.45L34.57 13.45Q32.93 13.45 32.13 12.40L32.13 12.40L32.13 12.40Q31.34 11.35 31.34 9.74ZM38.35 9.74L38.35 9.74L38.35 9.74Q38.35 8.13 39.20 7.09L39.20 7.09L39.20 7.09Q40.05 6.04 41.69 6.04L41.69 6.04L41.69 6.04Q43.33 6.04 44.18 7.09L44.18 7.09L44.18 7.09Q45.04 8.13 45.04 9.74L45.04 9.74L45.04 9.74Q45.04 11.35 44.18 12.40L44.18 12.40L44.18 12.40Q43.33 13.45 41.69 13.45L41.69 13.45L41.69 13.45Q40.05 13.45 39.20 12.40L39.20 12.40L39.20 12.40Q38.35 11.35 38.35 9.74ZM39.62 9.74L39.62 9.74L39.62 9.74Q39.62 11.18 40.19 11.87L40.19 11.87L40.19 11.87Q40.76 12.56 41.69 12.56L41.69 12.56L41.69 12.56Q42.63 12.56 43.20 11.87L43.20 11.87L43.20 11.87Q43.76 11.18 43.76 9.74L43.76 9.74L43.76 9.74Q43.76 8.31 43.20 7.62L43.20 7.62L43.20 7.62Q42.63 6.92 41.69 6.92L41.69 6.92L41.69 6.92Q40.76 6.92 40.19 7.62L40.19 7.62L40.19 7.62Q39.62 8.31 39.62 9.74ZM46.20 9.74L46.20 9.74L46.20 9.74Q46.20 8.13 46.99 7.09L46.99 7.09L46.99 7.09Q47.79 6.04 49.43 6.04L49.43 6.04L49.43 6.04Q50.54 6.04 51.12 6.43L51.12 6.43L51.12 6.43Q51.71 6.82 51.97 7.23L51.97 7.23L51.97 7.23Q52.11 7.46 51.91 7.59L51.91 7.59L51.47 7.88L51.47 7.88Q51.27 8.02 51.06 7.69L51.06 7.69L51.06 7.69Q50.87 7.38 50.51 7.15L50.51 7.15L50.51 7.15Q50.15 6.92 49.43 6.92L49.43 6.92L49.43 6.92Q48.49 6.92 47.98 7.62L47.98 7.62L47.98 7.62Q47.47 8.31 47.47 9.74L47.47 9.74L47.47 9.74Q47.47 11.18 47.98 11.87L47.98 11.87L47.98 11.87Q48.49 12.56 49.43 12.56L49.43 12.56L49.43 12.56Q50.19 12.56 50.59 12.27L50.59 12.27L50.59 12.27Q51.00 11.98 51.18 11.63L51.18 11.63L51.18 11.63Q51.36 11.31 51.58 11.45L51.58 11.45L52.04 11.72L52.04 11.72Q52.25 11.85 52.10 12.09L52.10 12.09L52.10 12.09Q51.93 12.39 51.33 12.92L51.33 12.92L51.33 12.92Q50.72 13.45 49.43 13.45L49.43 13.45L49.43 13.45Q47.79 13.45 46.99 12.40L46.99 12.40L46.99 12.40Q46.20 11.35 46.20 9.74ZM54.50 13.33L53.91 13.33L53.91 13.33Q53.60 13.33 53.60 13.02L53.60 13.02L53.60 3.55L53.60 3.55Q53.60 3.24 53.91 3.24L53.91 3.24L54.50 3.24L54.50 3.24Q54.80 3.24 54.80 3.55L54.80 3.55L54.80 9.24L54.80 9.24Q54.80 9.44 54.79 9.65L54.79 9.65L54.80 9.65L57.57 6.33L57.57 6.33Q57.72 6.15 57.93 6.15L57.93 6.15L58.56 6.15L58.56 6.15Q59.08 6.15 58.73 6.56L58.73 6.56L56.59 9.11L59.04 12.93L59.04 12.93Q59.30 13.33 58.86 13.33L58.86 13.33L58.19 13.33L58.19 13.33Q57.97 13.33 57.80 13.08L57.80 13.08L55.84 10.01L54.80 11.24L54.80 13.02L54.80 13.02Q54.80 13.33 54.50 13.33L54.50 13.33ZM61.92 13.33L61.15 13.33L61.15 13.33Q60.85 13.33 60.85 13.02L60.85 13.02L60.85 12.19L60.85 12.19Q60.85 11.88 61.15 11.88L61.15 11.88L61.92 11.88L61.92 11.88Q62.23 11.88 62.23 12.19L62.23 12.19L62.23 13.02L62.23 13.02Q62.23 13.33 61.92 13.33L61.92 13.33ZM64.17 9.74L64.17 9.74L64.17 9.74Q64.17 8.13 64.97 7.09L64.97 7.09L64.97 7.09Q65.76 6.04 67.40 6.04L67.40 6.04L67.40 6.04Q68.51 6.04 69.09 6.43L69.09 6.43L69.09 6.43Q69.68 6.82 69.94 7.23L69.94 7.23L69.94 7.23Q70.08 7.46 69.88 7.59L69.88 7.59L69.45 7.88L69.45 7.88Q69.24 8.02 69.04 7.69L69.04 7.69L69.04 7.69Q68.84 7.38 68.48 7.15L68.48 7.15L68.48 7.15Q68.12 6.92 67.40 6.92L67.40 6.92L67.40 6.92Q66.47 6.92 65.95 7.62L65.95 7.62L65.95 7.62Q65.44 8.31 65.44 9.74L65.44 9.74L65.44 9.74Q65.44 11.18 65.95 11.87L65.95 11.87L65.95 11.87Q66.47 12.56 67.40 12.56L67.40 12.56L67.40 12.56Q68.16 12.56 68.56 12.27L68.56 12.27L68.56 12.27Q68.97 11.98 69.15 11.63L69.15 11.63L69.15 11.63Q69.33 11.31 69.56 11.45L69.56 11.45L70.01 11.72L70.01 11.72Q70.22 11.85 70.08 12.09L70.08 12.09L70.08 12.09Q69.90 12.39 69.30 12.92L69.30 12.92L69.30 12.92Q68.69 13.45 67.40 13.45L67.40 13.45L67.40 13.45Q65.76 13.45 64.97 12.40L64.97 12.40L64.97 12.40Q64.17 11.35 64.17 9.74ZM71.18 9.74L71.18 9.74L71.18 9.74Q71.18 8.13 72.03 7.09L72.03 7.09L72.03 7.09Q72.88 6.04 74.53 6.04L74.53 6.04L74.53 6.04Q76.17 6.04 77.02 7.09L77.02 7.09L77.02 7.09Q77.87 8.13 77.87 9.74L77.87 9.74L77.87 9.74Q77.87 11.35 77.02 12.40L77.02 12.40L77.02 12.40Q76.17 13.45 74.53 13.45L74.53 13.45L74.53 13.45Q72.88 13.45 72.03 12.40L72.03 12.40L72.03 12.40Q71.18 11.35 71.18 9.74ZM72.45 9.74L72.45 9.74L72.45 9.74Q72.45 11.18 73.02 11.87L73.02 11.87L73.02 11.87Q73.59 12.56 74.53 12.56L74.53 12.56L74.53 12.56Q75.46 12.56 76.03 11.87L76.03 11.87L76.03 11.87Q76.60 11.18 76.60 9.74L76.60 9.74L76.60 9.74Q76.60 8.31 76.03 7.62L76.03 7.62L76.03 7.62Q75.46 6.92 74.53 6.92L74.53 6.92L74.53 6.92Q73.59 6.92 73.02 7.62L73.02 7.62L73.02 7.62Q72.45 8.31 72.45 9.74ZM79.03 9.74L79.03 9.74L79.03 9.74Q79.03 8.27 79.74 7.15L79.74 7.15L79.74 7.15Q80.45 6.04 81.82 6.04L81.82 6.04L81.82 6.04Q82.61 6.04 83.08 6.30L83.08 6.30L83.08 6.30Q83.55 6.56 83.92 7.01L83.92 7.01L83.94 7.01L83.94 7.01Q83.92 6.80 83.92 6.59L83.92 6.59L83.92 3.55L83.92 3.55Q83.92 3.24 84.23 3.24L84.23 3.24L84.82 3.24L84.82 3.24Q85.13 3.24 85.13 3.55L85.13 3.55L85.13 13.02L85.13 13.02Q85.13 13.33 84.82 13.33L84.82 13.33L84.25 13.33L84.25 13.33Q84 13.33 83.98 13.02L83.98 13.02L83.94 12.48L83.92 12.48L83.92 12.48Q83.55 12.93 83.08 13.19L83.08 13.19L83.08 13.19Q82.61 13.45 81.82 13.45L81.82 13.45L81.82 13.45Q80.45 13.45 79.74 12.33L79.74 12.33L79.74 12.33Q79.03 11.21 79.03 9.74ZM80.30 9.74L80.30 9.74L80.30 9.74Q80.30 11.00 80.74 11.78L80.74 11.78L80.74 11.78Q81.17 12.56 82.21 12.56L82.21 12.56L82.21 12.56Q82.95 12.56 83.44 12.06L83.44 12.06L83.44 12.06Q83.92 11.55 83.92 10.53L83.92 10.53L83.92 8.96L83.92 8.96Q83.92 7.93 83.44 7.43L83.44 7.43L83.44 7.43Q82.95 6.92 82.21 6.92L82.21 6.92L82.21 6.92Q81.17 6.92 80.74 7.70L80.74 7.70L80.74 7.70Q80.30 8.48 80.30 9.74ZM86.68 9.74L86.68 9.74L86.68 9.74Q86.68 8.05 87.53 7.04L87.53 7.04L87.53 7.04Q88.38 6.04 89.95 6.04L89.95 6.04L89.95 6.04Q91.27 6.04 92.13 6.96L92.13 6.96L92.13 6.96Q93.00 7.88 93.00 9.89L93.00 9.89L93.00 9.89Q93.00 10.20 92.72 10.20L92.72 10.20L87.95 10.20L87.95 10.20Q88.07 11.52 88.66 12.03L88.66 12.03L88.66 12.03Q89.26 12.55 90.01 12.55L90.01 12.55L90.01 12.55Q90.80 12.55 91.23 12.28L91.23 12.28L91.23 12.28Q91.65 12.02 91.85 11.76L91.85 11.76L91.85 11.76Q92.07 11.47 92.27 11.65L92.27 11.65L92.67 12.00L92.67 12.00Q92.83 12.13 92.67 12.37L92.67 12.37L92.67 12.37Q92.54 12.57 91.93 13.01L91.93 13.01L91.93 13.01Q91.32 13.45 90.01 13.45L90.01 13.45L90.01 13.45Q88.30 13.45 87.49 12.44L87.49 12.44L87.49 12.44Q86.68 11.44 86.68 9.74ZM87.92 9.31L87.92 9.31L91.79 9.31L91.79 9.31Q91.76 8.35 91.29 7.63L91.29 7.63L91.29 7.63Q90.83 6.91 89.93 6.91L89.93 6.91L89.93 6.91Q89.13 6.91 88.58 7.44L88.58 7.44L88.58 7.44Q88.03 7.97 87.92 9.31ZM94.17 12.66L94.17 12.66L94.17 12.66Q93.96 12.46 94.08 12.29L94.08 12.29L94.39 11.86L94.39 11.86Q94.54 11.66 94.83 11.88L94.83 11.88L94.83 11.88Q95.24 12.19 95.73 12.37L95.73 12.37L95.73 12.37Q96.23 12.56 96.87 12.56L96.87 12.56L96.87 12.56Q97.24 12.56 97.54 12.47L97.54 12.47L97.54 12.47Q97.83 12.37 98.05 12.12L98.05 12.12L98.05 12.12Q98.27 11.87 98.27 11.44L98.27 11.44L98.27 11.44Q98.27 11.20 98.17 10.98L98.17 10.98L98.17 10.98Q98.06 10.76 97.84 10.63L97.84 10.63L97.84 10.63Q97.62 10.49 97.41 10.42L97.41 10.42L97.41 10.42Q97.06 10.29 96.71 10.20L96.71 10.20L96.71 10.20Q96.37 10.12 95.81 9.94L95.81 9.94L95.81 9.94Q95.43 9.82 95.09 9.61L95.09 9.61L95.09 9.61Q94.76 9.39 94.51 9.02L94.51 9.02L94.51 9.02Q94.26 8.65 94.26 8.00L94.26 8.00L94.26 8.00Q94.26 7.34 94.66 6.86L94.66 6.86L94.66 6.86Q95.07 6.38 95.68 6.21L95.68 6.21L95.68 6.21Q96.28 6.04 96.86 6.04L96.86 6.04L96.86 6.04Q97.71 6.04 98.22 6.23L98.22 6.23L98.22 6.23Q98.74 6.43 99.11 6.69L99.11 6.69L99.11 6.69Q99.33 6.85 99.18 7.05L99.18 7.05L98.87 7.46L98.87 7.46Q98.72 7.66 98.42 7.45L98.42 7.45L98.42 7.45Q98.17 7.27 97.71 7.12L97.71 7.12L97.71 7.12Q97.24 6.96 96.89 6.96L96.89 6.96L96.89 6.96Q96.46 6.96 96.15 7.05L96.15 7.05L96.15 7.05Q95.85 7.15 95.66 7.38L95.66 7.38L95.66 7.38Q95.46 7.62 95.46 7.93L95.46 7.93L95.46 7.93Q95.46 8.17 95.54 8.36L95.54 8.36L95.54 8.36Q95.61 8.54 95.82 8.70L95.82 8.70L95.82 8.70Q96.02 8.86 96.39 8.96L96.39 8.96L96.39 8.96Q96.97 9.11 97.44 9.23L97.44 9.23L97.44 9.23Q97.92 9.35 98.30 9.53L98.30 9.53L98.30 9.53Q98.80 9.76 99.07 10.04L99.07 10.04L99.07 10.04Q99.34 10.32 99.44 10.65L99.44 10.65L99.44 10.65Q99.54 10.97 99.54 11.37L99.54 11.37L99.54 11.37Q99.54 12.10 99.11 12.61L99.11 12.61L99.11 12.61Q98.68 13.11 98.14 13.28L98.14 13.28L98.14 13.28Q97.61 13.45 96.86 13.45L96.86 13.45L96.86 13.45Q95.84 13.45 95.11 13.16L95.11 13.16L95.11 13.16Q94.38 12.87 94.17 12.66Z"></path></g><!----><g data-v-d3f97b9e="" id="3ef17ea7-8590-4583-bf26-0615a80e96b9" transform="matrix(2.194448583516522,0,0,2.194448583516522,-10.722429175826107,-64.22897705159275)" stroke="none" fill="white"><path d="M23.943 30.807L5 50.001l18.942 19.192a4.386 4.386 0 0 0 6.258.002 4.522 4.522 0 0 0 .002-6.338L18.193 50.695l-3.624 2.289 15.634-15.841a4.494 4.494 0 0 0 1.295-3.168 4.5 4.5 0 0 0-1.297-3.17 4.387 4.387 0 0 0-6.258.002zM76.057 30.808L95 50.001 76.058 69.193a4.386 4.386 0 0 1-6.258.002 4.522 4.522 0 0 1-.002-6.338l12.009-12.161 3.624 2.289-15.635-15.841a4.494 4.494 0 0 1-1.295-3.168 4.5 4.5 0 0 1 1.297-3.17 4.386 4.386 0 0 1 6.259.002zM60.899 32.352a4.492 4.492 0 0 0-2.366-2.476 4.386 4.386 0 0 0-5.825 2.288l-13.82 32.062a4.496 4.496 0 0 0-.048 3.422 4.492 4.492 0 0 0 2.366 2.476 4.386 4.386 0 0 0 5.825-2.288l13.82-32.062a4.496 4.496 0 0 0 .048-3.422z"></path></g><!----></svg>